<?xml version="1.0" encoding="UTF-8"?>
<svg id="Layer_1" data-name="Layer 1" xmlns="http://www.w3.org/2000/svg" viewBox="0 0 560.95 184.4">
  <defs>
    <style>
      .cls-1 {
        fill: #0071bc;
      }

      .cls-2, .cls-3 {
        fill: none;
      }

      .cls-3 {
        stroke: #0071bc;
        stroke-miterlimit: 10;
        stroke-width: 5px;
      }

      .cls-4 {
        fill: #eb6914;
      }
    </style>
  </defs>
  <g>
    <g>
      <path class="cls-1" d="M9.21,139.51v.2h-3.11v-.22c0-2.01,1.32-3.65,2.94-3.65h.09v.2h-.09c-1.51,0-2.74,1.5-2.78,3.37v.1s2.95,0,2.95,0Z"/>
      <path class="cls-1" d="M30.83,139.76v.2h-3.11v-.2h2.95v-.08c-.04-1.87-1.27-3.38-2.79-3.38h-.04v-.2h.08c1.61.03,2.91,1.66,2.91,3.67h0Z"/>
      <path class="cls-1" d="M17.8,130.21c-.1.2-.26.34-.45.39-.05,0-.1.02-.15.02-.33,0-.63-.29-.7-.7l-.25-1.06-.67-3.78v-.07l.15-.04v.05l.68,3.79.24,1.06c.07.38.36.62.67.54.14-.04.27-.15.35-.3.08-.16.11-.35.07-.52l-.86-4.9-.04-.2-.05-.28.08-.02.08-.02.02.1.93,5.28c.04.23,0,.47-.1.68v-.02Z"/>
      <polygon class="cls-1" points="19.82 124.16 19.74 124.65 19.73 124.75 19.57 124.71 19.59 124.62 19.64 124.22 19.66 124.12 19.82 124.16"/>
      <path class="cls-1" d="M16.95,124.66s-.05.01-.07.02c-.33.07-.66.17-.98.29-.05.02-.11.04-.16.06s-.1.04-.16.06c-.31.13-.61.27-.91.44h-.02c-.06.04-.12.08-.17.11-.01,0-.02,0-.03.02-3.19,1.91-5.24,5.92-5.25,10.29h-.16v-.1c.04-4.5,2.2-8.61,5.53-10.49v-.02h.03c.4-.23.82-.42,1.24-.57.32-.12.66-.21.99-.29.03,0,.06-.01.09-.02l.02.2h0Z"/>
      <path class="cls-1" d="M20.93,124.94c-.38-.13-.78-.23-1.18-.3-.03,0-.06-.01-.08-.02h-.07s0,.09,0,.09l-.74,4.88c-.07.48.19.95.58,1.04.04,0,.09.02.13.02.34,0,.64-.3.71-.73l.7-4.75.03-.2h0l-.07-.03h-.01ZM20.11,129.88c-.06.38-.35.63-.65.56s-.5-.43-.45-.81l.71-4.78c.37.06.74.15,1.1.27l-.71,4.77h0Z"/>
      <path class="cls-1" d="M27.92,136.09v.1h-.16c0-4.58-2.23-8.71-5.65-10.53l-.05-.03c-.35-.18-.71-.34-1.08-.47-.03,0-.06-.02-.09-.03l.04-.19s.05.02.07.03c.39.13.78.3,1.15.5h.06v.04c3.44,1.84,5.66,5.98,5.7,10.58h.01Z"/>
      <path class="cls-1" d="M30.76,139.86c-.16.04-.34.07-.53.1l-.02-.2c.16-.03.32-.05.46-.08.02,0,.05,0,.07,0l.03.2h0Z"/>
      <path class="cls-1" d="M6.79,139.51l-.02.2c-.24-.04-.44-.08-.61-.12l.03-.2s.05,0,.07,0c.16.03.33.07.54.1h-.01Z"/>
      <polygon class="cls-1" points="14.54 125.75 14.45 125.65 14.42 125.61 14.48 125.58 14.48 125.68 14.54 125.75"/>
      <path class="cls-1" d="M26.91,139.89c-2.38.17-5.34.26-8.34.26s-6.06-.1-8.46-.27h-.09v.24c0,.18.01.35.02.52.01.22.02.44.04.66.12,1.54.36,3.04.72,4.46.05.18.09.35.14.53.67,2.4,1.68,4.45,2.91,5.92l.02.02c.07.08.14.16.21.24,1.33,1.48,2.86,2.27,4.42,2.27,1.43,0,2.84-.66,4.08-1.9.05-.05.1-.1.16-.16,1.45-1.53,2.61-3.77,3.36-6.5.4-1.46.68-3.03.81-4.65.03-.32.05-.64.07-1,0-.18.02-.36.02-.54v-.11h-.09ZM26.82,140.53c-.02.35-.04.67-.07.98,0,.08-.01.17-.02.25-.14,1.52-.4,2.98-.78,4.35-.74,2.69-1.88,4.91-3.32,6.42-.05.05-.1.1-.15.15-1.21,1.22-2.59,1.86-3.98,1.86-1.52,0-3.02-.77-4.31-2.22-.08-.08-.15-.17-.23-.26l-.02-.03c-1.2-1.45-2.19-3.46-2.85-5.82-.05-.17-.09-.35-.14-.52-.36-1.4-.6-2.89-.71-4.42-.02-.21-.03-.43-.04-.65,0-.17-.02-.34-.02-.52v-.03c2.39.17,5.36.27,8.38.27s5.89-.09,8.26-.26c0,.14-.01.29-.02.43l.02.02Z"/>
      <path class="cls-1" d="M22.13,125.67v-.1.1ZM22.21,125.57h-.08v-.1l.08.1Z"/>
      <path class="cls-1" d="M19.76,124.04l-.04.2s-.05-.01-.07-.02c-.88-.25-1.79-.24-2.68.04-.02,0-.05.02-.07.02l-.02-.1-.02-.1c.96-.32,1.95-.33,2.91-.04h0Z"/>
      <path class="cls-1" d="M28.29,140.98v3.65c0,1-.59,1.81-1.32,1.86h-.07v-.2c.68,0,1.23-.75,1.23-1.66v-3.65c0-.27-.14-.5-.33-.55-.03,0-.05,0-.08,0v-.2h.08c.28.05.49.37.49.76Z"/>
      <path class="cls-1" d="M13.11,153.36l-.05.07-.05.07s-.02-.02-.03-.04c-1.37-1.61-2.41-3.77-3-6.26-.02-.07-.03-.14-.05-.2,0-.04-.02-.07-.03-.11l.16-.05c.58,2.6,1.63,4.85,3.06,6.51h0Z"/>
      <path class="cls-1" d="M26.98,146.41s0,.05-.01.08c-.56,2.83-1.72,5.35-3.28,7.11l-.03.04-.05-.07h0l-.06-.08c1.56-1.75,2.72-4.28,3.27-7.12l.08.02.08.02Z"/>
      <path class="cls-1" d="M22.7,154.57s-.07.06-.11.09c-.57.48-1.18.85-1.81,1.11-.77.33-1.58.5-2.4.5s-1.63-.17-2.41-.51c-.66-.29-1.3-.69-1.9-1.2-.04-.03-.08-.06-.12-.1l-.03-.03v-.05h.08l.04-.08c.62.55,1.29.98,1.97,1.27,1.52.66,3.18.66,4.71,0,.65-.28,1.28-.68,1.88-1.19l.05.08.04.08v.03Z"/>
      <rect class="cls-1" x="27.63" y="139.86" width=".16" height=".92"/>
      <rect class="cls-1" x="9.12" y="139.59" width=".16" height=".53"/>
      <path class="cls-1" d="M9.97,147.01v.2h0c-.82,0-1.49-1.11-1.49-2.46v-3.26c0-.66.27-1.22.64-1.41.05-.03.11-.05.16-.05.03,0,.06,0,.1,0v.2c-.41,0-.74.57-.74,1.27v3.26c0,1.22.57,2.21,1.28,2.26h.05,0Z"/>
      <polygon class="cls-1" points="23.09 159.37 23 159.37 22.92 159.38 22.92 159.32 22.59 154.67 22.58 154.5 22.66 154.49 22.74 154.48 23.09 159.37"/>
      <polygon class="cls-1" points="24.16 160.21 23.49 160.28 23.46 160.29 23.45 160.19 23.45 160.19 23.44 160.13 23.44 160.09 23.49 160.08 23.83 160.05 23.99 160.03 23.98 159.95 23.98 159.91 23.95 159.6 23.52 153.57 23.6 153.56 23.6 153.56 23.68 153.55 23.69 153.6 24.14 159.91 24.14 159.93 24.15 160.11 24.16 160.21"/>
      <polygon class="cls-1" points="12.88 159.59 13.06 159.61 13.06 159.62 13.05 159.71 13.04 159.81 12.99 159.8 12.53 159.76 12.54 159.62 12.56 159.38 12.56 159.38 12.97 153.47 12.97 153.42 13.06 153.43 13.14 153.44 12.72 159.35 12.71 159.57 12.88 159.59"/>
      <polygon class="cls-1" points="14.08 154.39 14.07 154.57 13.74 159.27 13.74 159.33 13.66 159.32 13.58 159.31 13.92 154.4 13.92 154.39 14.01 154.39 14.08 154.39"/>
      <path class="cls-1" d="M23.51,160.25s-.01.02-.02.03c-.76,1.08-2.81,1.81-5.12,1.81-2.5,0-4.6-.82-5.24-1.99-.04-.07-.07-.13-.09-.2-.01-.03-.02-.06-.03-.09h0s-.01-.05-.02-.07l.08-.03.07-.03s.03.09.05.14c.47,1.19,2.65,2.08,5.19,2.08,1.94,0,3.69-.51,4.62-1.32,0,0,.01,0,.02,0,.16-.14.29-.29.39-.44l.04.04.03.03h0l.06.07-.03-.02Z"/>
      <path class="cls-1" d="M23.05,159.46c-.97.83-2.76,1.34-4.69,1.34s-3.8-.53-4.75-1.39l.05-.08.05-.08s.02.02.04.03c.94.82,2.7,1.32,4.62,1.32s3.6-.49,4.56-1.27c.02,0,.03-.02.04-.03l.04.08.05.08h-.01Z"/>
      <polygon class="cls-1" points="24.85 159.91 24.85 160.16 24.69 160.16 24.69 160.11 23.99 160.11 23.99 160.14 23.83 160.14 23.83 159.91 24.85 159.91"/>
      <g>
        <path class="cls-1" d="M18.43,161.8c-2.5,0-4.59-.82-5.24-1.99h.04v-.2h-.18v.1l.07-.03c.01.05.03.09.05.14.47,1.19,2.65,2.08,5.19,2.08,1.94,0,3.69-.51,4.62-1.32-.98.76-2.68,1.23-4.55,1.23h0ZM23.44,160.13s-.01.02-.02.03l.03.03v-.05h-.01ZM23.55,159.99s-.04.06-.07.09l.34-.04v-.08l-.28.03h.01Z"/>
        <path class="cls-4" d="M27.71,139.86v-.1h2.5c.16-.03.32-.05.46-.08-.04-1.87-1.27-3.38-2.79-3.38h-.04v-.1h-.08c0-4.58-2.23-8.71-5.65-10.53l-.05-.03c-.35-.18-.71-.34-1.08-.47l-.7,4.75c-.07.43-.37.73-.71.73-.04,0-.09,0-.13-.02-.39-.09-.65-.56-.58-1.04l.72-4.88v-.1h.02l.06-.4c-.88-.25-1.79-.24-2.68.04l.93,5.28c.04.23,0,.47-.1.68-.1.2-.26.34-.45.39-.05,0-.1.02-.15.02-.33,0-.63-.29-.7-.7l-.25-1.06-.67-3.78c-.31.13-.61.27-.91.44h-.02c-.06.04-.12.08-.17.11v.05l.05.07-.08-.1c-3.19,1.91-5.24,5.92-5.25,10.29h-.08v.1h-.09c-1.51,0-2.74,1.5-2.78,3.37.16.03.33.07.54.1h2.41v.08h.08v.44s.06,0,.1,0v.2c-.41,0-.74.57-.74,1.27v3.26c0,1.22.57,2.21,1.28,2.26,0-.04-.02-.07-.03-.11l.16-.05c.58,2.6,1.63,4.85,3.06,6.51l-.05.07h.08l-.41,5.91.16.24.18.02h.18v.2h-.04c.64,1.17,2.74,1.99,5.24,1.99,1.87,0,3.57-.47,4.55-1.23,0,0,.01,0,.02,0,.16-.14.29-.29.39-.44l.04.04s.02-.02.02-.03v-.05h.04s.05-.06.07-.09l.28-.03v-.06h.15l-.02-.3-.43-6.03h.08l-.06-.08c1.56-1.75,2.72-4.28,3.27-7.12l.08.02v-.1c.68,0,1.23-.75,1.23-1.66v-3.65c0-.27-.14-.5-.33-.55v.35h-.16v-.92h.08-.05ZM23.05,159.46c-.97.83-2.76,1.34-4.69,1.34s-3.8-.53-4.75-1.39l.05-.08h-.08l.35-4.92h.08l.04-.08c.62.55,1.29.98,1.97,1.27,1.52.66,3.18.66,4.71,0,.65-.28,1.28-.68,1.88-1.19l.05.08h.08l.35,4.88h-.08l.05.09h0ZM27,139.99c0,.18-.01.36-.02.54-.02.36-.04.68-.07,1-.13,1.63-.41,3.19-.81,4.65-.75,2.73-1.91,4.97-3.36,6.5-.06.06-.11.11-.16.16-1.24,1.25-2.65,1.9-4.08,1.9-1.56,0-3.09-.79-4.42-2.27-.07-.08-.14-.16-.21-.24l-.02-.02c-1.23-1.48-2.24-3.53-2.91-5.92-.05-.18-.1-.35-.14-.53-.36-1.41-.6-2.91-.72-4.46-.02-.21-.03-.43-.04-.66,0-.17-.02-.35-.02-.52v-.25h.08c2.4.18,5.41.27,8.46.27s5.96-.09,8.34-.26h.09v.1h.01Z"/>
        <polygon class="cls-1" points="12.9 159.63 12.78 159.75 12.69 159.62 12.56 159.41 12.56 159.38 12.64 159.37 12.7 159.31 12.72 159.35 12.88 159.59 12.9 159.62 12.9 159.63"/>
      </g>
      <polygon class="cls-1" points="18.38 169.88 18.32 169.94 18.26 170 11.89 160.07 11.95 160.01 12.02 159.94 12.12 160.11 18.32 169.78 18.38 169.88"/>
      <polygon class="cls-1" points="23.58 160.17 23.58 160.16 23.74 160.16 23.58 160.17"/>
      <polygon class="cls-1" points="24.83 160.22 18.38 170 18.32 169.94 18.26 169.88 18.32 169.78 24.69 160.12 24.71 160.09 24.77 160.16 24.83 160.22"/>
      <g>
        <path class="cls-4" d="M24.57,160.11l-6.19,9.38-6.2-9.67h.82s.02.06.03.09c.03.07.06.13.09.2.64,1.17,2.74,1.99,5.24,1.99,2.31,0,4.36-.73,5.12-1.81l.67-.08v-.1h.42Z"/>
        <path class="cls-1" d="M24.75,159.82h0l-.05.09-.13.2h-.42v.1l-.67.08c-.76,1.08-2.81,1.81-5.12,1.81-2.5,0-4.6-.82-5.24-1.99-.04-.07-.07-.13-.09-.2-.01-.03-.02-.06-.03-.09h.19c.64,1.17,2.74,1.99,5.24,1.99,1.87,0,3.57-.47,4.55-1.23,0,0,.01,0,.02,0,.16-.13.31-.26.43-.41,0,0,.02-.02.02-.03.02-.02.03-.03.04-.05.02-.03.05-.06.07-.09l.28-.03.15-.02.16-.02h.08v-.11h.53-.01Z"/>
        <rect class="cls-1" x="12.02" y="159.62" width="1.22" height=".2"/>
      </g>
      <g>
        <polygon class="cls-4" points="17.58 170.3 17.58 172.49 6.15 172.49 7.16 170.3 17.58 170.3"/>
        <polygon class="cls-1" points="17.75 170.1 17.75 172.69 6.01 172.69 6.01 172.49 17.58 172.49 17.58 170.3 7.12 170.3 7.12 170.1 17.75 170.1"/>
      </g>
      <polygon class="cls-1" points="30.46 172.49 30.46 172.69 18.8 172.69 18.8 170.1 29.36 170.1 29.36 170.3 18.96 170.3 18.96 172.49 30.46 172.49"/>
      <g>
        <polygon class="cls-4" points="30.32 172.49 18.96 172.49 18.96 170.3 29.3 170.3 30.32 172.49"/>
        <polygon class="cls-1" points="30.53 172.54 30.46 172.59 30.39 172.64 30.32 172.49 29.3 170.3 29.24 170.17 29.32 170.12 29.35 170.2 29.36 170.2 29.42 170.16 30.53 172.54"/>
      </g>
      <polygon class="cls-1" points="8.5 170.1 8.5 170.3 7.16 170.3 6.15 172.49 6.08 172.64 6.01 172.59 5.94 172.54 7.07 170.1 8.5 170.1"/>
      <path class="cls-1" d="M7.72,166.21c-.04.2-.07.4-.11.6v.02c-.5,2.47-1.34,4.64-2.26,5.8,0,0-.02.02-.02.03l-.05-.07-.06-.07c.91-1.13,1.74-3.28,2.24-5.73h0c.04-.21.08-.41.11-.62.31-1.76.42-3.46.31-4.94v-.12h.08l.08-.02c.12,1.53.01,3.3-.31,5.12h0Z"/>
      <path class="cls-1" d="M2.31,167.16h-.16v-.12l.16.03v.09Z"/>
      <path class="cls-1" d="M31.42,172.42l-.06.07-.06.07s-.02-.02-.02-.03c-.87-1.07-1.64-3.05-2.12-5.44h0c-.09-.45-.16-.85-.21-1.25-.25-1.69-.32-3.34-.2-4.77l.16.02v.14c-.1,1.38-.03,2.96.21,4.58.06.4.13.8.21,1.23h0c.47,2.35,1.25,4.36,2.09,5.38h0Z"/>
      <path class="cls-1" d="M33.53,165.15l-.06.07-.05.06h0c-.21-.26-.44-.54-.71-.84-.15-.17-.31-.35-.52-.57v-.02h-.02c-1.12-1.18-2.27-2.11-3.25-2.63h-.02s-.07-.04-.1-.05l.03-.09.03-.09c1.02.51,2.23,1.48,3.41,2.72h0v.02c.21.22.37.4.53.57.27.31.51.59.72.86h0Z"/>
      <path class="cls-1" d="M7.96,161.2s-.06.02-.09.03c-1.03.34-2.52,1.66-3.92,3.46h0s0,.02,0,.03l-.02.03c-.16.2-.32.42-.53.71-.33.46-.63.93-.92,1.4h0c-.04.08-.09.15-.13.22,0,0,0,0,0,.02,0,.02-.02.03-.02.05v.02c-1.14,2.37-1.39,4.67-1.47,5.44,0,.07,0,.12-.02.17.03.06.02.14.02.22v.1h0s0-.02-.02-.03l-.06.18c-.09-.05-.08-.18-.07-.28v-.08l-.02-.02-.02-.02v-.05s.02-.12.03-.21c.09-.78.34-3.16,1.53-5.59.05-.08.09-.16.14-.23v-.02l.03-.02c.28-.46.59-.93.92-1.39.21-.3.38-.52.53-.72v-.06h.05c1.49-1.92,3.02-3.24,4.09-3.55l.02.1.02.1h-.05Z"/>
      <path class="cls-1" d="M35.72,170.62l-.14.05h0c0-.06-.02-.13-.04-.18h0s0-.07-.02-.1c-.18-.81-.44-1.68-.78-2.53-.12-.31-.25-.61-.38-.88v-.02c-.3-.62-.61-1.18-.93-1.65h0l.05-.07.06-.07c.33.49.64,1.07.95,1.71v.02c.14.27.26.56.39.87.34.85.61,1.73.79,2.55,0,.04.02.07.02.11.02.07.03.13.04.2h0Z"/>
      <polygon class="cls-1" points="32.29 163.72 32.23 163.79 32.2 163.87 32.2 163.88 32.18 163.86 32.17 163.86 32.18 163.85 32.23 163.79 32.27 163.7 32.28 163.72 32.29 163.72"/>
      <polygon class="cls-1" points="3.87 164.75 3.87 164.66 3.78 164.66 3.87 164.55 3.87 164.65 3.95 164.66 3.87 164.66 3.87 164.75"/>
      <path class="cls-1" d="M2.46,166.81v.05h0c-.05.11-.09.22-.14.33l-.03-.02-.04-.02h-.08v-.03h0v-.02s.02-.04.03-.06c.04-.09.08-.18.12-.27v-.03l.03-.02h0l.05.08h.08,0Z"/>
      <g>
        <path class="cls-4" d="M7.56,166.17c-.04.2-.07.41-.11.6h0c-.49,2.47-1.33,4.61-2.24,5.75l.06.07h-.08v11.61H.79v-11.11h0v-.09c0-.08,0-.17-.02-.22,0-.04,0-.1.02-.17.08-.76.33-3.07,1.47-5.44l.03.02c.05-.11.1-.22.14-.32h0c.28-.48.59-.95.92-1.41.21-.29.38-.51.53-.71l.02-.03s0,0,0,0h0c1.41-1.82,2.9-3.14,3.92-3.48.11,1.48,0,3.18-.31,4.94h.04Z"/>
        <polygon class="cls-1" points="5.34 172.59 5.34 184.4 .62 184.4 .62 172.84 .79 172.84 .79 184.2 5.18 184.2 5.18 172.59 5.34 172.59"/>
      </g>
      <g>
        <path class="cls-4" d="M35.86,171.7v12.45h-4.4v-11.66h-.08l.05-.07c-.84-1.02-1.62-3.03-2.09-5.36h0c-.09-.45-.16-.85-.21-1.25-.24-1.62-.31-3.19-.21-4.57.98.52,2.13,1.45,3.25,2.63h0v.02c.22.22.38.39.53.57.27.31.5.58.71.84h0c.32.48.62,1.03.91,1.65v.02c.14.27.27.57.39.88.34.85.61,1.72.78,2.53,0,.03.02.07.02.1h0c0,.06.03.13.04.19h.02l.07.34.03-.1s.04.1.05.17l.12.42v.02h-.04v.2h.05v-.02Z"/>
        <path class="cls-1" d="M35.58,170.66h0c0-.06-.02-.13-.04-.18h0s0-.07-.02-.1c-.18-.81-.44-1.68-.78-2.53-.12-.31-.25-.61-.38-.88v-.02c-.3-.62-.61-1.18-.93-1.65h0c-.21-.26-.44-.54-.71-.84-.15-.17-.31-.35-.52-.57v-.02h-.02c-1.12-1.18-2.27-2.11-3.25-2.63h0c.98.51,2.13,1.44,3.26,2.62h0c.21.23.37.41.52.58.27.3.5.58.7.83q.13.17,0,0h0c.31.47.62,1.01.9,1.63h0s0,.02,0,.03v.02c.14.27.27.57.39.88.34.85.61,1.72.78,2.53h0l.03.1h0s.02.08.03.13v.06h.04Z"/>
        <path class="cls-1" d="M36.02,171.5v12.85h-4.72v-11.86h.16v11.66h4.4v-12.67l-.13-.42c-.02-.06-.04-.12-.05-.17l-.03.1-.07-.34h0v-.06h0s-.02-.07-.03-.12h0l-.03-.1h0l.14-.07h0l.03.1h0c.02.05.06.2.18.57l.14.5.02.03Z"/>
      </g>
    </g>
    <g>
      <path class="cls-1" d="M82.3,139.51v.2h-3.11v-.22c0-2.01,1.32-3.65,2.94-3.65h.09v.2h-.09c-1.51,0-2.74,1.5-2.78,3.37v.1h2.95Z"/>
      <path class="cls-1" d="M103.92,139.76v.2h-3.11v-.2h2.95v-.08c-.03-1.87-1.27-3.38-2.79-3.38h-.04v-.2h.08c1.61.03,2.91,1.66,2.91,3.67h0Z"/>
      <path class="cls-1" d="M90.9,130.21c-.1.2-.26.34-.45.39-.05,0-.1.02-.15.02-.33,0-.63-.29-.7-.7l-.25-1.06-.67-3.78v-.07l.15-.04v.05l.68,3.79.24,1.06c.07.38.36.62.67.54.14-.04.27-.15.35-.3.08-.16.11-.35.07-.52l-.86-4.9-.03-.2-.05-.28.16-.04.02.1.93,5.28c.04.23,0,.47-.1.68v-.02Z"/>
      <polygon class="cls-1" points="92.91 124.16 92.84 124.65 92.83 124.75 92.67 124.71 92.68 124.62 92.74 124.22 92.76 124.12 92.91 124.16"/>
      <path class="cls-1" d="M90.05,124.66s-.05.01-.07.02c-.33.07-.66.17-.98.29-.05.02-.11.04-.16.06s-.1.04-.16.06c-.31.13-.61.27-.91.44h-.02c-.06.04-.12.08-.17.11-.01,0-.02,0-.03.02-3.19,1.91-5.24,5.92-5.25,10.29h-.16v-.1c.04-4.5,2.2-8.61,5.53-10.49v-.02h.03c.4-.23.82-.42,1.24-.57.32-.12.66-.21.99-.29.03,0,.06-.01.09-.02l.02.2h.01Z"/>
      <path class="cls-1" d="M94.03,124.94c-.38-.13-.78-.23-1.18-.3-.03,0-.06-.01-.08-.02h-.07s0,.09,0,.09l-.74,4.88c-.07.48.19.95.58,1.04.04,0,.09.02.13.02.34,0,.64-.3.71-.73l.7-4.75.03-.2h0l-.07-.03h0ZM93.2,129.88c-.06.38-.35.63-.65.56s-.5-.43-.45-.81l.71-4.78c.37.06.74.15,1.1.27l-.71,4.77h0Z"/>
      <path class="cls-1" d="M101.01,136.09v.1h-.16c0-4.58-2.23-8.71-5.65-10.53l-.05-.03c-.35-.18-.71-.34-1.08-.47-.03,0-.06-.02-.09-.03l.04-.19s.05.02.07.03c.39.13.78.3,1.15.5h.06v.04c3.44,1.84,5.66,5.98,5.7,10.58h.01Z"/>
      <path class="cls-1" d="M103.86,139.86c-.16.04-.34.07-.53.1l-.02-.2c.16-.03.32-.05.46-.08.02,0,.05,0,.07,0l.03.2h-.01Z"/>
      <path class="cls-1" d="M79.89,139.51l-.02.2c-.24-.04-.44-.08-.61-.12l.03-.2s.05,0,.07,0c.16.03.33.07.54.1h-.01Z"/>
      <polygon class="cls-1" points="87.63 125.75 87.55 125.65 87.52 125.61 87.58 125.58 87.58 125.68 87.63 125.75"/>
      <path class="cls-1" d="M100.01,139.89c-2.38.17-5.34.26-8.34.26s-6.06-.1-8.46-.27h-.09v.24c0,.18.01.35.02.52.01.22.02.44.04.66.12,1.54.36,3.04.72,4.46.05.18.09.35.14.53.67,2.4,1.68,4.45,2.91,5.92l.02.02.21.24c1.33,1.48,2.86,2.27,4.42,2.27,1.43,0,2.84-.66,4.08-1.9.05-.05.1-.1.16-.16,1.45-1.53,2.61-3.77,3.36-6.5.4-1.46.68-3.03.81-4.65.03-.32.05-.64.07-1,0-.18.02-.36.02-.54v-.11h-.09ZM99.91,140.53c-.02.35-.04.67-.07.98,0,.08-.01.17-.02.25-.14,1.52-.4,2.98-.78,4.35-.74,2.69-1.88,4.91-3.32,6.42-.05.05-.1.1-.15.15-1.21,1.22-2.59,1.86-3.98,1.86-1.52,0-3.02-.77-4.31-2.22-.08-.08-.15-.17-.23-.26l-.02-.03c-1.2-1.45-2.19-3.46-2.85-5.82-.05-.17-.09-.35-.14-.52-.36-1.4-.6-2.89-.71-4.42-.02-.21-.03-.43-.04-.65,0-.17-.02-.34-.02-.52v-.03c2.39.17,5.36.27,8.38.27s5.89-.09,8.26-.26c0,.14-.01.29-.02.43l.02.02Z"/>
      <path class="cls-1" d="M95.23,125.67v-.1.1ZM95.31,125.57h-.08v-.1l.08.1Z"/>
      <path class="cls-1" d="M92.85,124.04l-.02.1-.02.1s-.05-.01-.07-.02c-.88-.25-1.79-.24-2.68.04-.02,0-.05.02-.07.02l-.02-.1-.02-.1c.96-.32,1.95-.33,2.91-.04h-.01Z"/>
      <path class="cls-1" d="M101.39,140.98v3.65c0,1-.59,1.81-1.32,1.86h-.07v-.2c.68,0,1.23-.75,1.23-1.66v-3.65c0-.27-.14-.5-.33-.55-.03,0-.05,0-.08,0v-.2h.08c.28.05.49.37.49.76Z"/>
      <path class="cls-1" d="M86.21,153.36l-.05.07-.05.07s-.02-.02-.03-.04c-1.37-1.61-2.41-3.77-3-6.26-.02-.07-.03-.14-.05-.2,0-.04-.02-.07-.03-.11l.16-.05c.58,2.6,1.63,4.85,3.06,6.51h0Z"/>
      <path class="cls-1" d="M100.07,146.41s0,.05-.01.08c-.56,2.83-1.72,5.35-3.28,7.11l-.03.04-.05-.07h0l-.06-.08c1.56-1.75,2.72-4.28,3.27-7.12l.08.02.08.02Z"/>
      <path class="cls-1" d="M95.8,154.57s-.07.06-.11.09c-.57.48-1.18.85-1.81,1.11-.77.33-1.58.5-2.4.5s-1.63-.17-2.41-.51c-.66-.29-1.3-.69-1.9-1.2-.04-.03-.08-.06-.12-.1l-.03-.03v-.05h.08l.04-.08c.62.55,1.29.98,1.97,1.27,1.52.66,3.18.66,4.71,0,.65-.28,1.28-.68,1.88-1.19l.05.08.04.08v.03Z"/>
      <rect class="cls-1" x="100.73" y="139.86" width=".16" height=".92"/>
      <rect class="cls-1" x="82.22" y="139.59" width=".16" height=".53"/>
      <path class="cls-1" d="M83.07,147.01v.2h0c-.82,0-1.49-1.11-1.49-2.46v-3.26c0-.66.27-1.22.64-1.41.05-.03.11-.05.16-.05.03,0,.06,0,.1,0v.2c-.41,0-.74.57-.74,1.27v3.26c0,1.22.57,2.21,1.28,2.26h.05,0Z"/>
      <polygon class="cls-1" points="96.18 159.37 96.1 159.37 96.02 159.38 96.02 159.32 95.69 154.67 95.68 154.5 95.76 154.49 95.84 154.48 96.18 159.37"/>
      <polygon class="cls-1" points="97.26 160.21 96.58 160.28 96.55 160.29 96.55 160.19 96.55 160.19 96.54 160.13 96.54 160.09 96.58 160.08 96.93 160.05 97.08 160.03 97.08 159.95 97.07 159.91 97.05 159.6 96.62 153.57 96.7 153.56 96.7 153.56 96.78 153.55 96.79 153.6 97.24 159.91 97.24 159.93 97.25 160.11 97.26 160.21"/>
      <polygon class="cls-1" points="85.98 159.59 86.16 159.61 86.16 159.62 86.15 159.71 86.14 159.81 86.09 159.8 85.63 159.76 85.64 159.62 85.66 159.38 85.66 159.38 86.07 153.47 86.07 153.42 86.15 153.43 86.23 153.44 85.82 159.35 85.81 159.57 85.98 159.59"/>
      <polygon class="cls-1" points="87.18 154.39 87.17 154.57 86.84 159.27 86.84 159.33 86.75 159.32 86.67 159.31 87.02 154.4 87.02 154.39 87.1 154.39 87.18 154.39"/>
      <path class="cls-1" d="M96.61,160.25s-.01.02-.02.03c-.76,1.08-2.81,1.81-5.12,1.81-2.5,0-4.6-.82-5.24-1.99-.04-.07-.07-.13-.09-.2-.01-.03-.02-.06-.03-.09h0s-.01-.05-.02-.07l.08-.03.07-.03s.03.09.05.14c.47,1.19,2.65,2.08,5.19,2.08,1.94,0,3.69-.51,4.62-1.32,0,0,.01,0,.02,0,.16-.14.29-.29.39-.44l.04.04.03.03h0l.06.07-.03-.02Z"/>
      <path class="cls-1" d="M96.15,159.46c-.97.83-2.76,1.34-4.69,1.34s-3.8-.53-4.75-1.39l.05-.08.05-.08s.02.02.04.03c.94.82,2.7,1.32,4.62,1.32s3.6-.49,4.56-1.27c.02,0,.03-.02.04-.03l.04.08.05.08h-.01Z"/>
      <polygon class="cls-1" points="97.95 159.91 97.95 160.16 97.79 160.16 97.79 160.11 97.09 160.11 97.09 160.14 96.93 160.14 96.93 159.91 97.95 159.91"/>
      <g>
        <path class="cls-1" d="M91.52,161.8c-2.5,0-4.59-.82-5.24-1.99h.04v-.2h-.18v.1l.07-.03c.01.05.03.09.05.14.47,1.19,2.65,2.08,5.19,2.08,1.94,0,3.69-.51,4.62-1.32-.98.76-2.68,1.23-4.55,1.23h0ZM96.54,160.13s-.01.02-.02.03l.03.03v-.05h-.01ZM96.65,159.99s-.04.06-.07.09l.34-.04v-.08l-.28.03h.01Z"/>
        <path class="cls-4" d="M100.81,139.86v-.1h2.5c.16-.03.32-.05.46-.08-.03-1.87-1.27-3.38-2.79-3.38h-.04v-.1h-.08c0-4.58-2.23-8.71-5.65-10.53l-.05-.03c-.35-.18-.71-.34-1.08-.47l-.7,4.75c-.07.43-.37.73-.71.73-.04,0-.09,0-.13-.02-.39-.09-.65-.56-.58-1.04l.72-4.88v-.1h.02l.06-.4c-.88-.25-1.79-.24-2.68.04l.93,5.28c.04.23,0,.47-.1.68-.1.2-.26.34-.45.39-.05,0-.1.02-.15.02-.33,0-.63-.29-.7-.7l-.25-1.06-.67-3.78c-.31.13-.61.27-.91.44h-.02c-.06.04-.12.08-.17.11v.05l.05.07-.08-.1c-3.19,1.91-5.24,5.92-5.25,10.29h-.08v.1h-.09c-1.51,0-2.74,1.5-2.78,3.37.16.03.33.07.54.1h2.41v.08h.08v.44s.06,0,.1,0v.2c-.41,0-.74.57-.74,1.27v3.26c0,1.22.57,2.21,1.28,2.26,0-.04-.02-.07-.03-.11l.16-.05c.58,2.6,1.63,4.85,3.06,6.51l-.05.07h.08l-.41,5.91.16.24.18.02h.18v.2h-.04c.64,1.17,2.74,1.99,5.24,1.99,1.87,0,3.57-.47,4.55-1.23,0,0,.01,0,.02,0,.16-.14.29-.29.39-.44l.04.04s.02-.02.02-.03v-.05h.04s.05-.06.07-.09l.28-.03v-.06h.15l-.02-.3-.43-6.03h.08l-.06-.08c1.56-1.75,2.72-4.28,3.27-7.12l.08.02v-.1c.68,0,1.23-.75,1.23-1.66v-3.65c0-.27-.14-.5-.33-.55v.35h-.16v-.92h.08-.05ZM96.15,159.46c-.97.83-2.76,1.34-4.69,1.34s-3.8-.53-4.75-1.39l.05-.08h-.08l.35-4.92h.08l.04-.08c.62.55,1.29.98,1.97,1.27,1.52.66,3.18.66,4.71,0,.65-.28,1.28-.68,1.88-1.19l.05.08h.08l.35,4.88h-.08l.05.09h-.01ZM100.09,139.99c0,.18-.01.36-.02.54-.02.36-.04.68-.07,1-.13,1.63-.41,3.19-.81,4.65-.75,2.73-1.91,4.97-3.36,6.5l-.16.16c-1.24,1.25-2.65,1.9-4.08,1.9-1.56,0-3.09-.79-4.42-2.27l-.21-.24-.02-.02c-1.23-1.48-2.24-3.53-2.91-5.92-.05-.18-.1-.35-.14-.53-.36-1.41-.6-2.91-.72-4.46-.02-.21-.03-.43-.04-.66,0-.17-.02-.35-.02-.52v-.25h.08c2.4.18,5.41.27,8.46.27s5.96-.09,8.34-.26h.09v.1h0Z"/>
        <polygon class="cls-1" points="86 159.63 85.88 159.75 85.79 159.62 85.66 159.41 85.66 159.38 85.74 159.37 85.8 159.31 85.82 159.35 85.98 159.59 85.99 159.62 86 159.63"/>
      </g>
      <polygon class="cls-1" points="91.48 169.88 91.42 169.94 91.35 170 84.99 160.07 85.05 160.01 85.11 159.94 85.22 160.11 91.42 169.78 91.48 169.88"/>
      <polygon class="cls-1" points="96.68 160.17 96.68 160.16 96.84 160.16 96.68 160.17"/>
      <polygon class="cls-1" points="97.93 160.22 91.48 170 91.42 169.94 91.35 169.88 91.42 169.78 97.79 160.12 97.81 160.09 97.87 160.16 97.93 160.22"/>
      <g>
        <path class="cls-4" d="M97.67,160.11l-6.19,9.38-6.2-9.67h.82s.02.06.03.09c.03.07.06.13.09.2.64,1.17,2.74,1.99,5.24,1.99,2.31,0,4.36-.73,5.12-1.81l.67-.08v-.1h.42Z"/>
        <path class="cls-1" d="M97.85,159.82h0l-.05.09-.13.2h-.42v.1l-.67.08c-.76,1.08-2.81,1.81-5.12,1.81-2.5,0-4.6-.82-5.24-1.99-.04-.07-.07-.13-.09-.2-.01-.03-.02-.06-.03-.09h.19c.64,1.17,2.74,1.99,5.24,1.99,1.87,0,3.57-.47,4.55-1.23,0,0,.01,0,.02,0,.16-.13.31-.26.43-.41,0,0,.02-.02.02-.03.02-.02.03-.03.04-.05.02-.03.05-.06.07-.09l.28-.03.15-.02.16-.02h.08v-.11h.53-.01Z"/>
        <rect class="cls-1" x="85.11" y="159.62" width="1.22" height=".2"/>
      </g>
      <polygon class="cls-1" points="90.84 170.1 90.84 172.69 79.1 172.69 79.1 172.49 90.68 172.49 90.68 170.3 80.22 170.3 80.22 170.1 90.84 170.1"/>
      <polygon class="cls-1" points="103.56 172.49 103.56 172.69 91.9 172.69 91.9 170.1 102.45 170.1 102.45 170.3 92.06 170.3 92.06 172.49 103.56 172.49"/>
      <g>
        <polygon class="cls-4" points="103.42 172.49 92.06 172.49 92.06 170.3 102.4 170.3 103.42 172.49"/>
        <polygon class="cls-1" points="103.63 172.54 103.56 172.59 103.49 172.64 103.42 172.49 102.4 170.3 102.34 170.17 102.41 170.12 102.45 170.2 102.45 170.2 102.52 170.16 103.63 172.54"/>
      </g>
      <g>
        <polygon class="cls-4" points="90.68 170.3 90.68 172.49 79.24 172.49 80.26 170.3 90.68 170.3"/>
        <polygon class="cls-1" points="81.6 170.1 81.6 170.3 80.26 170.3 79.24 172.49 79.17 172.64 79.1 172.59 79.04 172.54 80.17 170.1 81.6 170.1"/>
      </g>
      <path class="cls-1" d="M80.82,166.21c-.04.2-.07.4-.11.6v.02c-.5,2.47-1.34,4.64-2.26,5.8,0,0-.02.02-.02.03l-.05-.07-.06-.07c.91-1.13,1.74-3.28,2.24-5.73h0c.04-.21.08-.41.11-.62.31-1.76.42-3.46.31-4.94v-.12h.08l.08-.02c.12,1.53.01,3.3-.31,5.12h-.01Z"/>
      <path class="cls-1" d="M75.4,167.16h-.16v-.12l.16.03v.09Z"/>
      <path class="cls-1" d="M104.52,172.42l-.06.07-.06.07s-.02-.02-.02-.03c-.87-1.07-1.64-3.05-2.12-5.44h0c-.09-.45-.16-.85-.21-1.25-.25-1.69-.32-3.34-.2-4.77l.16.02v.14c-.1,1.38-.03,2.96.21,4.58.06.4.13.8.21,1.23h0c.47,2.35,1.25,4.36,2.09,5.38h0Z"/>
      <path class="cls-1" d="M106.63,165.15l-.06.07-.05.06h0c-.21-.26-.44-.54-.71-.84-.15-.17-.31-.35-.52-.57v-.02h-.02c-1.12-1.18-2.27-2.11-3.25-2.63h-.01s-.07-.04-.1-.05l.03-.09.03-.09c1.02.51,2.23,1.48,3.41,2.72h.01v.02c.21.22.37.4.53.57.27.31.51.59.72.86h-.01Z"/>
      <path class="cls-1" d="M81.06,161.2s-.06.02-.09.03c-1.03.34-2.52,1.66-3.92,3.46h0s0,.02-.01.03l-.02.03c-.16.2-.32.42-.53.71-.33.46-.63.93-.92,1.4h0c-.04.08-.09.15-.13.22,0,0,0,0-.01.02,0,.02-.02.03-.02.05v.02c-1.14,2.37-1.39,4.67-1.47,5.44,0,.07-.01.12-.02.17.03.06.02.14.02.22v.1h0s-.01-.02-.02-.03l-.06.18c-.09-.05-.08-.18-.07-.28v-.08l-.02-.02-.02-.02v-.05s.02-.12.03-.21c.09-.78.34-3.16,1.53-5.59.05-.08.09-.16.14-.23v-.02l.03-.02c.28-.46.59-.93.92-1.39.21-.3.38-.52.53-.72v-.06h.05c1.49-1.92,3.02-3.24,4.09-3.55l.02.1.02.1h-.05Z"/>
      <path class="cls-1" d="M108.82,170.62l-.14.05h-.01c-.01-.06-.02-.13-.04-.18h0s-.01-.07-.02-.1c-.18-.81-.44-1.68-.78-2.53-.12-.31-.25-.61-.38-.88v-.02c-.3-.62-.61-1.18-.93-1.65h0l.05-.07.06-.07c.33.49.64,1.07.95,1.71v.02c.14.27.26.56.39.87.34.85.61,1.73.79,2.55,0,.04.02.07.02.11.02.07.03.13.04.2h0Z"/>
      <polygon class="cls-1" points="105.39 163.72 105.33 163.79 105.3 163.87 105.29 163.88 105.28 163.86 105.27 163.86 105.33 163.79 105.36 163.7 105.38 163.72 105.39 163.72"/>
      <polygon class="cls-1" points="76.97 164.75 76.97 164.66 76.88 164.66 76.97 164.55 76.97 164.65 77.04 164.66 76.97 164.66 76.97 164.75"/>
      <path class="cls-1" d="M75.56,166.81v.05h-.01c-.05.11-.09.22-.14.33l-.03-.02-.04-.02h-.08v-.03h0v-.02s.02-.04.03-.06c.04-.09.08-.18.12-.27v-.03l.03-.02h0l.05.08h.08-.01Z"/>
      <g>
        <path class="cls-4" d="M80.66,166.17c-.04.2-.07.41-.11.6h0c-.49,2.47-1.33,4.61-2.24,5.75l.06.07h-.08v11.61h-4.4v-11.11h0v-.09c0-.08.01-.17-.02-.22,0-.04.01-.1.02-.17.08-.76.33-3.07,1.47-5.44l.03.02c.05-.11.1-.22.14-.32h0c.28-.48.59-.95.92-1.41.21-.29.38-.51.53-.71l.02-.03s0,0,.01,0h0c1.41-1.82,2.9-3.14,3.92-3.48.11,1.48,0,3.18-.31,4.94h.04Z"/>
        <polygon class="cls-1" points="78.44 172.59 78.44 184.4 73.72 184.4 73.72 172.84 73.88 172.84 73.88 184.2 78.28 184.2 78.28 172.59 78.44 172.59"/>
      </g>
      <g>
        <path class="cls-4" d="M108.96,171.7v12.45h-4.4v-11.66h-.08l.05-.07c-.84-1.02-1.62-3.03-2.09-5.36h0c-.09-.45-.16-.85-.21-1.25-.24-1.62-.31-3.19-.21-4.57.98.52,2.13,1.45,3.25,2.63h0v.02c.22.22.38.39.53.57.27.31.5.58.71.84h0c.32.48.62,1.03.91,1.65v.02c.14.27.27.57.39.88.34.85.61,1.72.78,2.53,0,.03.02.07.02.1h0c.01.06.03.13.04.19h.02l.07.34.03-.1s.03.1.05.17l.12.42v.02h-.04v.2h.05v-.02Z"/>
        <path class="cls-1" d="M108.68,170.66h-.01c-.01-.06-.02-.13-.04-.18h0s-.01-.07-.02-.1c-.18-.81-.44-1.68-.78-2.53-.12-.31-.25-.61-.38-.88v-.02c-.3-.62-.61-1.18-.93-1.65h0c-.21-.26-.44-.54-.71-.84-.15-.17-.31-.35-.52-.57v-.02h-.02c-1.12-1.18-2.27-2.11-3.25-2.63h0c.98.51,2.13,1.44,3.26,2.62h0c.21.23.37.41.52.58.27.3.5.58.7.83h0c.31.47.61,1.01.9,1.63h0s0,.02.01.03v.02c.14.27.27.57.39.88.34.85.61,1.72.78,2.53h0l.03.1h0s.02.08.03.13v.06h.04Z"/>
        <path class="cls-1" d="M109.12,171.5v12.85h-4.72v-11.86h.16v11.66h4.4v-12.67l-.13-.42c-.02-.06-.04-.12-.05-.17l-.03.1-.07-.34h0v-.06h-.01s-.02-.07-.03-.12h0l-.03-.1h0l.14-.07h0l.03.1h0c.02.05.06.2.18.57l.14.5.02.03Z"/>
      </g>
    </g>
    <g>
      <path class="cls-1" d="M42.6,123.54v.27h-4.22v-.29c0-2.72,1.79-4.94,3.98-4.94h.13v.27h-.13c-2.04,0-3.71,2.03-3.76,4.56v.13h4Z"/>
      <path class="cls-1" d="M71.88,123.87v.27h-4.22v-.27h4v-.11c-.05-2.54-1.72-4.58-3.78-4.58h-.05v-.27h.11c2.18.04,3.94,2.25,3.94,4.97h0Z"/>
      <path class="cls-1" d="M54.24,110.94c-.14.27-.36.46-.61.53-.07.02-.14.03-.21.03-.45,0-.85-.39-.95-.95l-.33-1.43-.9-5.12-.02-.09.21-.06v.06l.92,5.14.33,1.43c.09.51.49.83.9.73.2-.05.37-.2.47-.41.11-.21.14-.46.1-.71l-1.17-6.64-.05-.26-.07-.38.21-.06.02.13,1.26,7.15c.06.32,0,.64-.13.91h.02Z"/>
      <polygon class="cls-1" points="56.97 102.75 56.87 103.41 56.85 103.55 56.64 103.5 56.66 103.37 56.74 102.83 56.76 102.7 56.87 102.72 56.97 102.75"/>
      <path class="cls-1" d="M53.09,103.42s-.07.01-.1.02c-.45.1-.9.23-1.33.39-.07.02-.14.05-.21.08-.07.02-.14.05-.21.08-.42.17-.83.37-1.23.6h-.02c-.08.06-.16.1-.24.15,0,0-.03.01-.04.02-4.32,2.59-7.1,8.02-7.11,13.94h-.22v-.14c.05-6.1,2.98-11.66,7.49-14.2l.02-.02h.02c.54-.31,1.11-.57,1.68-.77.44-.16.89-.29,1.35-.39.04-.01.08-.02.11-.03,0,0,.04.27.04.27Z"/>
      <polygon class="cls-1" points="66.17 126.59 66.17 126.58 66.39 126.58 66.17 126.59"/>
      <path class="cls-1" d="M58.48,103.81c-.52-.18-1.06-.32-1.6-.41-.04,0-.08-.02-.11-.02l-.1-.02h0l-1,6.74c-.1.66.25,1.29.78,1.41.06.01.12.02.18.02.46,0,.87-.41.96-.99l.95-6.43.04-.27h0l-.1-.04h0ZM57.37,110.5c-.08.51-.47.85-.88.75s-.68-.59-.61-1.1l.96-6.48c.5.08,1,.21,1.49.37l-.96,6.46Z"/>
      <path class="cls-1" d="M67.94,118.91v.13h-.22c-.01-6.2-3.02-11.8-7.66-14.25l-.07-.04c-.47-.25-.97-.46-1.47-.64-.04-.01-.08-.03-.12-.04l.06-.26s.07.02.1.04c.53.18,1.05.41,1.56.68h.09v.05c4.65,2.49,7.67,8.1,7.72,14.33h.01Z"/>
      <path class="cls-1" d="M71.79,124c-.22.05-.46.09-.72.14l-.03-.27c.22-.04.43-.07.62-.11.03,0,.06-.01.09-.02l.04.27h0Z"/>
      <path class="cls-1" d="M39.33,123.54l-.03.27c-.32-.05-.59-.11-.83-.16l.04-.27s.06.01.09.02c.21.05.45.09.73.14Z"/>
      <polygon class="cls-1" points="49.82 104.91 49.67 104.72 49.75 104.67 49.75 104.81 49.82 104.91"/>
      <path class="cls-1" d="M66.58,124.05c-3.22.23-7.23.36-11.3.36s-8.21-.13-11.46-.37h-.12v.33c0,.24.03.47.04.71.02.3.03.6.06.89.16,2.09.48,4.12.97,6.03.06.24.13.48.19.72.91,3.25,2.27,6.02,3.94,8.02l.03.04c.09.11.19.22.28.33,1.8,2.01,3.87,3.08,5.99,3.08,1.93,0,3.84-.89,5.52-2.58.07-.07.14-.14.21-.22,1.96-2.07,3.53-5.11,4.55-8.8.55-1.98.92-4.1,1.1-6.3.04-.43.06-.86.09-1.35.01-.24.02-.49.03-.73v-.15h-.12,0ZM66.45,124.92c-.02.47-.05.9-.09,1.33,0,.11-.02.23-.03.34-.19,2.06-.54,4.04-1.05,5.9-1,3.64-2.55,6.65-4.49,8.69-.07.07-.13.14-.2.21-1.64,1.65-3.5,2.52-5.38,2.52-2.06,0-4.08-1.04-5.84-3-.1-.12-.2-.23-.3-.36l-.04-.04c-1.63-1.97-2.96-4.69-3.85-7.88-.07-.24-.13-.48-.19-.71-.48-1.9-.81-3.91-.96-5.98-.02-.29-.04-.58-.06-.88,0-.23-.02-.46-.03-.7v-.04c3.23.23,7.26.36,11.35.36s7.98-.13,11.19-.35c0,.19-.02.39-.02.59h-.01Z"/>
      <path class="cls-1" d="M60.11,104.8v-.13.13ZM60.22,104.66h-.11v-.14l.11.14Z"/>
      <path class="cls-1" d="M56.89,102.59l-.05.27s-.07-.02-.1-.03c-1.19-.34-2.43-.32-3.63.05-.03,0-.07.02-.1.03l-.03-.13-.03-.13c1.3-.43,2.65-.44,3.94-.05h0Z"/>
      <path class="cls-1" d="M68.44,125.53v4.95c0,1.35-.79,2.45-1.79,2.51h-.09v-.27c.91,0,1.66-1.01,1.66-2.24v-4.95c0-.37-.19-.68-.45-.75-.04-.01-.07-.02-.11-.02v-.27s.07,0,.11.01c.38.07.67.5.67,1.03Z"/>
      <path class="cls-1" d="M47.89,142.29l-.07.1-.07.1s-.03-.03-.04-.05c-1.86-2.18-3.27-5.1-4.06-8.47-.02-.09-.05-.18-.07-.27,0-.05-.02-.1-.04-.15l.21-.07c.78,3.52,2.21,6.57,4.14,8.82h0Z"/>
      <path class="cls-1" d="M66.67,132.89s-.01.07-.02.1c-.76,3.83-2.34,7.25-4.44,9.63,0,.02-.03.03-.04.05l-.07-.1-.07-.1c2.11-2.37,3.68-5.79,4.43-9.64l.21.07h0Z"/>
      <path class="cls-1" d="M60.88,143.94s-.1.09-.16.13c-.78.64-1.6,1.15-2.44,1.51-1.05.45-2.14.68-3.25.68s-2.21-.23-3.27-.69c-.9-.39-1.76-.93-2.58-1.62-.05-.04-.1-.09-.16-.13l-.05-.04v-.07h.11l.06-.11c.84.74,1.74,1.32,2.67,1.72,2.06.89,4.31.9,6.38,0,.88-.38,1.74-.92,2.55-1.6l.06.11.06.11h.02Z"/>
      <rect class="cls-1" x="67.55" y="124" width=".22" height="1.25"/>
      <rect class="cls-1" x="42.49" y="123.64" width=".22" height=".72"/>
      <path class="cls-1" d="M43.64,133.69v.27h0c-1.11,0-2.01-1.5-2.01-3.33v-4.42c0-.9.37-1.66.87-1.91.07-.04.14-.06.22-.07.04-.01.09-.01.13-.01v.27c-.55,0-1,.77-1,1.72v4.42c0,1.65.77,3,1.73,3.06h.07-.01Z"/>
      <polygon class="cls-1" points="61.4 150.42 61.18 150.44 61.18 150.37 60.73 144.06 60.71 143.83 60.93 143.81 61.4 150.42"/>
      <polygon class="cls-1" points="62.85 151.57 61.94 151.67 61.9 151.67 61.89 151.54 61.88 151.4 62.41 151.34 62.62 151.32 62.61 151.16 62.58 150.75 61.99 142.58 62.21 142.55 62.21 142.62 62.83 151.16 62.84 151.43 62.85 151.57"/>
      <polygon class="cls-1" points="47.58 150.73 47.82 150.75 47.8 151.03 47.73 151.02 47.11 150.95 47.14 150.45 47.14 150.44 47.7 142.44 47.71 142.38 47.82 142.39 47.93 142.4 47.37 150.4 47.35 150.71 47.58 150.73"/>
      <polygon class="cls-1" points="49.21 143.69 49.19 143.94 48.75 150.3 48.74 150.37 48.52 150.35 48.99 143.69 48.99 143.68 49.1 143.69 49.21 143.69"/>
      <path class="cls-1" d="M61.98,151.62s-.02.03-.03.04c-1.03,1.47-3.81,2.45-6.94,2.45-3.38,0-6.22-1.11-7.09-2.69-.05-.09-.09-.18-.13-.27-.02-.05-.04-.09-.05-.14,0-.03-.02-.06-.03-.08l.1-.04.1-.04c.47,1.71,3.52,3,7.09,3,3.1,0,5.84-.97,6.81-2.4l.17.17Z"/>
      <path class="cls-1" d="M61.35,150.55c-1.31,1.12-3.74,1.81-6.35,1.81s-5.14-.72-6.43-1.88l.06-.11.06-.11s.03.03.05.04c1.27,1.11,3.66,1.79,6.26,1.79s4.88-.66,6.17-1.72c.02,0,.04-.03.05-.04l.06.11.06.11h0Z"/>
      <polygon class="cls-1" points="63.79 151.16 63.79 151.49 63.57 151.49 63.57 151.43 62.62 151.43 62.62 151.47 62.41 151.47 62.41 151.16 63.79 151.16"/>
      <g>
        <path class="cls-1" d="M67.66,124v-.14h3.38c.22-.04.43-.07.62-.11-.05-2.54-1.72-4.58-3.78-4.58h-.05v-.14h-.11c-.01-6.2-3.02-11.8-7.66-14.25l-.07-.04c-.47-.25-.97-.46-1.47-.64l-.95,6.43c-.09.58-.5.99-.96.99-.06,0-.12,0-.18-.02-.53-.12-.88-.76-.78-1.41l1-6.74h0l.08-.54c-1.19-.34-2.43-.32-3.63.05l1.26,7.15c.06.32,0,.64-.13.91-.14.27-.36.46-.61.53-.07.02-.14.03-.21.03-.45,0-.85-.39-.95-.95l-.33-1.43-.9-5.12c-.42.17-.83.37-1.23.6h-.02c-.08.06-.16.1-.24.15v.06l.07.1-.11-.14c-4.32,2.59-7.1,8.02-7.11,13.94h-.11v.14h-.13c-2.04,0-3.71,2.03-3.76,4.56.21.05.45.09.73.14h3.27v.1h.11v.59s.09-.01.13-.01v.27c-.55,0-1,.77-1,1.72v4.42c0,1.65.77,3,1.73,3.06,0-.05-.02-.1-.04-.15l.21-.07c.78,3.52,2.21,6.57,4.14,8.82l-.07.1h.11l-.56,8.01.21.33.24.02v.14l.09-.04c.47,1.71,3.52,3,7.09,3,3.1,0,5.84-.97,6.81-2.4l.08.09v-.14l.51-.06v-.19h.2l-.03-.41-.58-8.17h.11l-.07-.11c2.11-2.37,3.68-5.79,4.43-9.64l.11.03v-.14c.91,0,1.66-1.01,1.66-2.24v-4.95c0-.37-.19-.68-.45-.75v.47h-.22v-1.25h.11v.02ZM61.35,150.55c-1.31,1.12-3.74,1.81-6.35,1.81s-5.14-.72-6.43-1.88l.06-.11h-.11l.47-6.67h.11l.06-.11c.84.74,1.74,1.32,2.67,1.72,2.06.89,4.31.9,6.38,0,.88-.38,1.74-.92,2.55-1.6l.06.11h.11l.47,6.6h-.11l.06.12h0ZM66.7,124.19c0,.24-.02.49-.03.73-.02.49-.05.92-.09,1.35-.18,2.2-.55,4.32-1.1,6.3-1.01,3.69-2.59,6.74-4.55,8.8-.08.08-.14.15-.21.22-1.68,1.69-3.59,2.58-5.52,2.58-2.12,0-4.19-1.06-5.99-3.08-.1-.11-.19-.22-.28-.33l-.03-.04c-1.67-2-3.03-4.77-3.94-8.02-.07-.24-.13-.48-.19-.72-.49-1.91-.81-3.94-.97-6.03-.02-.29-.04-.59-.06-.89,0-.23-.02-.47-.03-.71v-.34h.11c3.25.24,7.32.37,11.46.37s8.07-.13,11.3-.36h.12v.17Z"/>
        <polygon class="cls-1" points="47.61 150.78 47.44 150.94 47.14 150.49 47.14 150.44 47.26 150.44 47.34 150.35 47.37 150.4 47.58 150.73 47.61 150.78"/>
      </g>
      <polygon class="cls-1" points="55.03 164.66 54.94 164.74 54.86 164.83 46.24 151.38 46.32 151.29 46.41 151.21 46.55 151.43 54.94 164.53 55.03 164.66"/>
      <polygon class="cls-1" points="62.07 151.51 62.07 151.5 62.29 151.5 62.07 151.51"/>
      <polygon class="cls-1" points="63.77 151.58 55.03 164.83 54.94 164.74 54.86 164.66 54.94 164.53 63.57 151.44 63.6 151.41 63.68 151.49 63.77 151.58"/>
      <g>
        <path class="cls-1" d="M63.66,151.04h0l-8.63,13.1-8.4-13.1h1.36c.87,1.59,3.71,2.69,7.09,2.69,3.13,0,5.91-.98,6.94-2.45l.91-.1v-.14h.73Z"/>
        <rect class="cls-1" x="46.41" y="150.76" width="1.65" height=".27"/>
      </g>
      <polygon class="cls-1" points="54.17 164.97 54.17 168.47 38.27 168.47 38.27 168.19 53.95 168.19 53.95 165.24 39.77 165.24 39.77 164.97 54.17 164.97"/>
      <polygon class="cls-1" points="71.38 168.19 71.38 168.47 55.6 168.47 55.6 164.97 69.89 164.97 69.89 165.24 55.82 165.24 55.82 168.19 71.38 168.19"/>
      <g>
        <polygon class="cls-1" points="71.2 168.19 55.82 168.19 55.82 165.24 69.82 165.24 71.2 168.19"/>
        <polygon class="cls-1" points="71.48 168.26 71.38 168.33 71.29 168.4 71.2 168.19 69.82 165.24 69.73 165.05 69.84 164.98 69.89 165.1 69.89 165.1 69.98 165.04 71.48 168.26"/>
      </g>
      <g>
        <polygon class="cls-1" points="53.95 165.24 53.95 168.19 38.46 168.19 39.84 165.24 53.95 165.24"/>
        <polygon class="cls-1" points="41.65 164.97 41.65 165.24 39.84 165.24 38.46 168.19 38.37 168.4 38.18 168.26 39.71 164.97 41.65 164.97"/>
      </g>
      <path class="cls-1" d="M40.59,159.7c-.05.27-.1.54-.15.81v.02c-.67,3.35-1.82,6.28-3.06,7.86,0,.02-.02.03-.03.04l-.08-.1-.08-.1c1.23-1.54,2.36-4.44,3.03-7.76v-.02c.06-.27.11-.54.16-.82.42-2.38.56-4.69.42-6.69,0-.05,0-.11,0-.16l.22-.03c.16,2.07.02,4.46-.41,6.93v.02Z"/>
      <path class="cls-1" d="M33.26,160.98h-.22c0-.06,0-.11,0-.16l.22.03s0,.08,0,.13Z"/>
      <path class="cls-1" d="M72.69,168.1l-.08.1-.08.1s-.02-.03-.03-.04c-1.18-1.45-2.22-4.13-2.86-7.37v-.02c-.12-.59-.21-1.13-.29-1.67-.33-2.29-.43-4.52-.27-6.46l.22.03c0,.06,0,.12-.01.18-.14,1.87-.04,4.01.28,6.2.08.54.17,1.08.29,1.67v.02c.64,3.17,1.7,5.88,2.84,7.27h0Z"/>
      <path class="cls-1" d="M75.55,158.26l-.08.1-.08.1h0c-.28-.35-.59-.73-.96-1.14-.21-.23-.42-.47-.7-.77l-.02-.02h0c-1.53-1.61-3.09-2.87-4.42-3.57-.05-.03-.09-.05-.14-.07l.08-.25c1.37.69,3.01,2,4.62,3.68l.02.02h0c.28.3.5.54.71.78.37.42.69.8.97,1.16v-.02Z"/>
      <path class="cls-1" d="M40.92,152.91s-.08.02-.12.04c-1.39.46-3.41,2.25-5.31,4.69v.02s-.02,0-.03.02l-.03.04c-.21.27-.44.57-.72.97-.44.62-.86,1.25-1.24,1.89h0v.02c-.07.1-.13.2-.18.29,0,0,0,.02-.02.03,0,.02-.02.04-.03.06,0,0,0,.02,0,.03-1.54,3.2-1.88,6.33-1.99,7.36,0,.09-.02.16-.02.22.04.08.03.2.02.3,0,.04-.01.11,0,.13v-.02s-.01-.02-.02-.02l-.08.25c-.12-.06-.11-.24-.09-.38v-.11l-.02-.03-.02-.03v-.07c.02-.06.03-.16.04-.29.11-1.06.46-4.28,2.07-7.57.06-.11.12-.21.19-.32v-.03l.04-.03c.37-.63.8-1.26,1.24-1.88.28-.4.51-.7.72-.98v-.08h.06c2.02-2.6,4.09-4.39,5.54-4.81l.02.13.02.13-.03.03Z"/>
      <path class="cls-1" d="M78.52,165.66l-.21.07h0c-.02-.08-.03-.17-.05-.25h0s-.02-.09-.03-.13c-.24-1.1-.6-2.27-1.06-3.42-.17-.42-.34-.83-.51-1.19l-.02-.04c-.39-.84-.81-1.59-1.24-2.24h0l.09-.09.09-.09c.44.67.87,1.45,1.28,2.32l.02.03c.17.36.34.76.51,1.18.48,1.21.86,2.44,1.1,3.59.02.09.04.18.05.26h-.02Z"/>
      <polygon class="cls-1" points="73.86 156.33 73.79 156.42 73.74 156.54 73.71 156.52 73.7 156.51 73.78 156.42 73.83 156.3 73.86 156.32 73.86 156.33"/>
      <polygon class="cls-1" points="35.37 157.72 35.37 157.59 35.26 157.59 35.37 157.45 35.37 157.58 35.48 157.59 35.37 157.59 35.37 157.72"/>
      <path class="cls-1" d="M33.47,160.5v.04l-.02.03h0c-.07.15-.14.3-.21.46l-.04-.03-.05-.03h-.11v-.04h0v-.03s.03-.05.05-.08c.06-.13.11-.25.17-.37v-.04l.04-.03h0l.06.11h.1Z"/>
      <g>
        <path class="cls-1" d="M40.37,159.64c-.05.28-.1.55-.15.82v.02c-.67,3.32-1.81,6.22-3.03,7.76l.08.1h-.11v15.72h-5.96v-15.04.02-.13c0-.11.02-.22-.02-.3,0-.06.02-.13.02-.22.11-1.03.45-4.16,1.99-7.36l.04.03c.07-.15.14-.31.21-.46h0c.38-.64.8-1.27,1.24-1.89.28-.39.51-.7.72-.97l.03-.04s0-.02.02-.02v-.02c1.92-2.45,3.94-4.23,5.32-4.69.14,2,0,4.31-.42,6.69l.02-.02Z"/>
        <polygon class="cls-1" points="37.38 168.33 37.38 184.33 30.98 184.33 30.98 168.67 31.2 168.67 31.2 184.06 37.16 184.06 37.16 168.33 37.38 168.33"/>
      </g>
      <g>
        <path class="cls-1" d="M78.7,167.12v16.86h-5.96v-15.79h-.11l.08-.1c-1.14-1.38-2.2-4.1-2.83-7.27v-.02c-.12-.59-.21-1.13-.29-1.67-.32-2.19-.42-4.33-.28-6.2,1.33.7,2.89,1.96,4.42,3.57h0l.02.02c.28.3.5.54.7.77.37.42.68.79.96,1.14h0c.43.64.84,1.4,1.24,2.24l.02.04c.17.37.35.77.51,1.19.46,1.15.82,2.32,1.06,3.42h0l.04.13h0c.02.09.04.17.05.25h0l.09.46.04-.14c.02.07.05.14.07.23l.16.56v.02h-.05v.27h.07v.02Z"/>
        <path class="cls-1" d="M78.92,166.85v17.4h-6.39v-16.06h.22v15.79h5.96v-17.15l-.17-.56c-.03-.08-.05-.16-.07-.23l-.04.14-.09-.46h0l-.02-.08h0s-.02-.09-.04-.17h0l-.04-.13h0l.19-.1.04.14h0c.02.07.09.28.25.79l.19.68h0Z"/>
        <path class="cls-1" d="M76.93,166.92v.2c0,.21.04.4.13.58.06.19.16.35.31.48.14.15.3.25.48.31.18.09.37.14.58.13l.4-.05c.25-.07.47-.2.66-.39l.23-.3c.14-.23.2-.49.2-.76v-.2c0-.21-.04-.4-.13-.58-.06-.19-.16-.35-.31-.48-.14-.15-.3-.25-.48-.31-.18-.09-.37-.14-.58-.13l-.4.05c-.25.07-.47.2-.66.39l-.23.3c-.14.23-.2.49-.2.76h0Z"/>
      </g>
    </g>
    <g>
      <path class="cls-1" d="M0,129.87V5.84C0,2.62,2.62,0,5.84,0h40.77c3.23,0,5.84,2.62,5.84,5.84v67.11"/>
      <line class="cls-2" x1="52.46" y1="72.95" y2="129.87"/>
      <path class="cls-4" d="M190.42,0l-91.24,95.6c-2.35,2.46-6.25,2.56-8.72.21l-21.11-20.15c-2.1-2-2.18-5.32-.17-7.42L134.29,0h56.13Z"/>
      <path class="cls-1" d="M153.36,182.26l-12.19-12.43-51.78-52.81,14.58-14.29c5.85-5.73,15.23-5.64,20.96.21l65.58,66.89,14.09,14.37"/>
      <path class="cls-1" d="M204.6,184.21h-43.2c-3.92,0-7.68-1.58-10.42-4.38l-9.8-10"/>
      <path class="cls-3" d="M89.88,115.55l.51-.51-29.35-29.35c-1.62-1.62-4.25-1.62-5.88,0l-32.36,32.36"/>
    </g>
  </g>
  <g>
    <path class="cls-4" d="M221.54,165.49c-.43-.77-.8-1.64-1.11-2.62s-.54-2-.7-3.06c-1,1.95-2.23,3.51-3.69,4.68s-3.37,1.75-5.73,1.75c-3.85,0-6.85-.99-9-2.98-2.14-1.98-3.21-4.69-3.21-8.11,0-3.65,1.37-6.47,4.11-8.45s6.9-2.98,12.48-2.98h4.73v-2.62c0-1.56-.37-2.77-1.12-3.6-.75-.84-1.89-1.26-3.44-1.26-1.34,0-2.33.31-2.98.94-.65.62-.97,1.59-.97,2.91l-11.15-.03-.07-.2c-.16-3.35,1.24-6.16,4.2-8.42,2.96-2.26,6.86-3.38,11.72-3.38,4.56,0,8.25,1.13,11.07,3.4,2.82,2.27,4.23,5.51,4.23,9.73v13.88c0,1.95.16,3.76.49,5.44.33,1.68.82,3.36,1.48,5.03l-11.36-.03.02-.02ZM213.45,158.05c1.41,0,2.65-.33,3.72-.99,1.08-.66,1.83-1.44,2.26-2.35v-4.86h-4.62c-1.84,0-3.16.44-3.98,1.33-.82.88-1.22,2.01-1.22,3.37,0,1.04.36,1.89,1.07,2.53.71.65,1.64.97,2.77.97h0Z"/>
    <path class="cls-4" d="M257.56,138.52l-3.74-.03c-1.31,0-2.39.24-3.23.73-.84.49-1.46,1.17-1.87,2.06v24.25h-11.5v-36.8h10.81l.41,5.41c.77-1.93,1.79-3.42,3.06-4.49s2.75-1.6,4.46-1.6c.52,0,.99.03,1.39.1.41.07.84.17,1.29.31l-1.09,10.07h0Z"/>
    <path class="cls-4" d="M276.64,149.31l.03.27h.2l6.09-20.85h12.24l-14.66,42.27c-1.13,2.72-2.6,4.96-4.39,6.73-1.79,1.77-4.64,2.65-8.54,2.65-1,0-1.81-.06-2.45-.19-.64-.12-1.63-.36-2.99-.7l1.39-8.2c.32.07.56.12.71.15.16.03.36.05.61.05,1.81,0,3.14-.27,3.98-.8s1.46-1.33,1.87-2.4l.92-2.38-12.72-37.21h12.21l5.48,20.58.02.03Z"/>
    <path class="cls-4" d="M318.94,165.49c-.43-.77-.8-1.64-1.11-2.62-.31-.97-.54-2-.7-3.06-1,1.95-2.23,3.51-3.69,4.68s-3.37,1.75-5.73,1.75c-3.85,0-6.85-.99-8.99-2.98-2.14-1.98-3.21-4.69-3.21-8.11,0-3.65,1.37-6.47,4.11-8.45s6.9-2.98,12.48-2.98h4.73v-2.62c0-1.56-.37-2.77-1.12-3.6s-1.89-1.26-3.43-1.26c-1.34,0-2.33.31-2.98.94-.65.62-.97,1.59-.97,2.91l-11.15-.03-.07-.2c-.16-3.35,1.24-6.16,4.2-8.42,2.96-2.26,6.86-3.38,11.72-3.38,4.56,0,8.25,1.13,11.07,3.4,2.82,2.27,4.23,5.51,4.23,9.73v13.88c0,1.95.16,3.76.49,5.44.33,1.68.82,3.36,1.48,5.03l-11.36-.03v-.02ZM310.85,158.05c1.41,0,2.65-.33,3.72-.99,1.08-.66,1.83-1.44,2.26-2.35v-4.86h-4.62c-1.84,0-3.16.44-3.98,1.33-.82.88-1.22,2.01-1.22,3.37,0,1.04.36,1.89,1.07,2.53.71.65,1.64.97,2.77.97h0Z"/>
    <path class="cls-1" d="M368.7,147.91c0,5.6-1.2,10.06-3.61,13.37-2.4,3.31-5.96,4.97-10.68,4.97-2,0-3.74-.43-5.24-1.29s-2.78-2.11-3.84-3.74l-.68,4.32h-10.03v-53.05h11.5v19.83c1.02-1.36,2.2-2.41,3.55-3.15,1.35-.74,2.91-1.11,4.68-1.11,4.74,0,8.32,1.73,10.73,5.2s3.62,8.12,3.62,13.94v.71h0ZM357.24,147.2c0-3.27-.41-5.8-1.22-7.6-.82-1.8-2.34-2.7-4.56-2.7-1.25,0-2.32.23-3.21.7s-1.6,1.14-2.12,2.02v15.47c.54.77,1.26,1.35,2.16,1.73.9.39,1.98.58,3.25.58,2.27,0,3.79-.79,4.56-2.36s1.16-3.95,1.16-7.12v-.71h-.02Z"/>
    <path class="cls-1" d="M395.02,165.49c-.43-.77-.8-1.64-1.11-2.62-.31-.97-.54-2-.7-3.06-1,1.95-2.23,3.51-3.69,4.68s-3.37,1.75-5.73,1.75c-3.85,0-6.85-.99-9-2.98-2.14-1.98-3.21-4.69-3.21-8.11,0-3.65,1.37-6.47,4.11-8.45s6.9-2.98,12.48-2.98h4.73v-2.62c0-1.56-.37-2.77-1.12-3.6-.75-.84-1.89-1.26-3.44-1.26-1.34,0-2.33.31-2.98.94s-.97,1.59-.97,2.91l-11.16-.03-.07-.2c-.16-3.35,1.24-6.16,4.2-8.42,2.96-2.26,6.86-3.38,11.72-3.38,4.56,0,8.25,1.13,11.07,3.4s4.23,5.51,4.23,9.73v13.88c0,1.95.16,3.76.49,5.44.33,1.68.82,3.36,1.48,5.03l-11.36-.03.03-.02ZM386.93,158.05c1.41,0,2.65-.33,3.72-.99,1.08-.66,1.83-1.44,2.26-2.35v-4.86h-4.62c-1.84,0-3.16.44-3.98,1.33-.82.88-1.22,2.01-1.22,3.37,0,1.04.36,1.89,1.07,2.53.71.65,1.64.97,2.77.97h0Z"/>
    <path class="cls-1" d="M421.27,128.73l.44,5.17c1.2-1.84,2.69-3.27,4.46-4.3s3.74-1.55,5.92-1.55c3.6,0,6.42,1.22,8.45,3.67s3.04,6.34,3.04,11.67v22.14h-11.5v-22.17c0-2.33-.37-4-1.12-4.98-.75-.99-1.84-1.48-3.27-1.48-1.22,0-2.32.22-3.3.65-.97.43-1.79,1.04-2.45,1.84v26.15h-11.46v-36.8h10.79Z"/>
    <path class="cls-1" d="M448.31,147.2c0-5.74,1.25-10.36,3.76-13.88,2.51-3.51,6.04-5.27,10.59-5.27,1.7,0,3.24.39,4.61,1.17s2.6,1.9,3.69,3.35v-20.1h11.5v53.05h-10.07l-.78-4.49c-1.11,1.68-2.41,2.96-3.89,3.86-1.49.9-3.19,1.34-5.12,1.34-4.54,0-8.05-1.68-10.54-5.03-2.49-3.35-3.74-7.79-3.74-13.3v-.71h0ZM459.81,147.91c0,2.99.44,5.32,1.31,6.99s2.34,2.5,4.4,2.5c1.2,0,2.26-.22,3.18-.66s1.67-1.09,2.26-1.96v-14.86c-.59-.97-1.34-1.72-2.25-2.24s-1.95-.78-3.13-.78c-2.04,0-3.51.94-4.42,2.82s-1.36,4.38-1.36,7.48v.71h.01Z"/>
    <path class="cls-1" d="M500.14,133.29c1.11-1.65,2.46-2.94,4.06-3.86s3.36-1.38,5.29-1.38c3.81,0,6.8,1.33,8.98,3.98s3.26,6.77,3.26,12.34v21.15h-11.49v-21.22c0-2.81-.36-4.75-1.09-5.82s-1.83-1.6-3.3-1.6c-1.29,0-2.41.19-3.37.56-.95.37-1.73.9-2.35,1.58v26.49h-11.5v-53.05h11.5v20.83Z"/>
    <path class="cls-1" d="M550.3,160.02c-1.09,2-2.5,3.53-4.23,4.61s-3.74,1.62-6,1.62c-3.81,0-6.8-1.34-8.96-4.01-2.17-2.67-3.25-6.81-3.25-12.41v-21.08h11.46v21.15c0,2.88.37,4.85,1.11,5.92.74,1.07,1.88,1.6,3.42,1.6,1.22,0,2.3-.17,3.23-.51s1.72-.85,2.38-1.53v-26.63h11.49v36.8h-9.25l-1.39-5.51v-.02Z"/>
  </g>
</svg>